<svg width="1024" height="1024" viewBox="0 0 1024 1024"><g><path d="M320,455.34L55,190L190,55L320,184.833L320,160C320,71.634 391.634,0 480,0C568.366,0 640,71.634 640,160L640,504.423L702.817,567.16C703.599,559.546 704,551.82 704,544L704,448L768,448L768,544C768,570.914 764.308,596.965 757.402,621.675L970,834L834,970L644.59,780.346C606.182,807.138 560.939,824.809 512,830.22L512,960L640,960L640,1024L320,1024L320,960L448,960L448,830.22C304.004,814.3 192,692.238 192,544L192,448L256,448L256,544C256,667.71 356.288,768 480,768C523.493,768 564.091,755.604 598.454,734.152L551.525,687.162C530.001,697.937 505.709,704 480,704C391.636,704 320,632.366 320,544L320,455.34Z"/></g></svg>
